<svg xmlns="http://www.w3.org/2000/svg" width="800" height="1180" viewBox="0 0 800 1180" role="img" aria-labelledby="title desc">
  <title id="title">患者端缴费中心改版示意图</title>
  <desc id="desc">与患者首页一致的蓝色渐变、圆角卡片和底部导航。空态提供查看缴费记录入口。</desc>
  <defs>
    <linearGradient id="hero" x1="0" y1="0" x2="1" y2="1">
      <stop offset="0" stop-color="#1976f3"/>
      <stop offset="1" stop-color="#27b9e6"/>
    </linearGradient>
    <linearGradient id="canvas" x1="0" y1="0" x2="0" y2="1">
      <stop offset="0" stop-color="#eaf5ff"/>
      <stop offset="1" stop-color="#f7fbff"/>
    </linearGradient>
    <filter id="shadow" x="-20%" y="-20%" width="140%" height="160%">
      <feDropShadow dx="0" dy="12" stdDeviation="18" flood-color="#527da9" flood-opacity=".12"/>
    </filter>
  </defs>
  <rect width="800" height="1180" fill="#edf5fc"/>
  <rect x="90" y="24" width="620" height="1132" rx="46" fill="url(#canvas)" filter="url(#shadow)"/>
  <path d="M90 70Q90 24 136 24H664Q710 24 710 70V260H90Z" fill="url(#hero)"/>
  <circle cx="145" cy="122" r="27" fill="#ffffff" fill-opacity=".2" stroke="#ffffff" stroke-opacity=".7"/>
  <path d="M153 110l-11 12 11 12" fill="none" stroke="#fff" stroke-width="3.5" stroke-linecap="round" stroke-linejoin="round"/>
  <text x="184" y="113" fill="#ffffff" font-family="Microsoft YaHei, Noto Sans CJK SC, sans-serif" font-size="34" font-weight="700">缴费中心</text>
  <text x="184" y="149" fill="#ffffff" font-family="Microsoft YaHei, Noto Sans CJK SC, sans-serif" font-size="17">查看并支付本次就诊的待缴医疗项目</text>
  <rect x="570" y="94" width="100" height="52" rx="26" fill="#fff" fill-opacity=".18" stroke="#fff" stroke-opacity=".65"/>
  <path d="M594 119l10-9 10 9v12h-20z" fill="none" stroke="#fff" stroke-width="2" stroke-linejoin="round"/>
  <text x="624" y="127" fill="#fff" font-family="Microsoft YaHei, Noto Sans CJK SC, sans-serif" font-size="16" font-weight="600">首页</text>
  <rect x="116" y="210" width="568" height="94" rx="20" fill="#fff" filter="url(#shadow)"/>
  <rect x="138" y="232" width="48" height="48" rx="14" fill="#e5f2ff"/>
  <path d="M151 245h22a4 4 0 014 4v14a4 4 0 01-4 4h-22a4 4 0 01-4-4v-14a4 4 0 014-4zm3 11h16" fill="none" stroke="#1677ef" stroke-width="2.4" stroke-linecap="round"/>
  <text x="204" y="252" fill="#17355a" font-family="Microsoft YaHei, Noto Sans CJK SC, sans-serif" font-size="20" font-weight="700">待缴项目</text>
  <text x="204" y="278" fill="#6682a3" font-family="Microsoft YaHei, Noto Sans CJK SC, sans-serif" font-size="15">本次就诊暂未产生待缴医疗项目</text>
  <rect x="590" y="237" width="69" height="37" rx="18.5" fill="#edf7ff"/>
  <text x="611" y="261" fill="#1677ef" font-family="Microsoft YaHei, Noto Sans CJK SC, sans-serif" font-size="15" font-weight="700">0 项</text>
  <rect x="116" y="330" width="568" height="532" rx="24" fill="#ffffff" stroke="#d7e6f5"/>
  <text x="150" y="382" fill="#1a385f" font-family="Microsoft YaHei, Noto Sans CJK SC, sans-serif" font-size="20" font-weight="700">当前待缴</text>
  <text x="590" y="382" fill="#1677ef" font-family="Microsoft YaHei, Noto Sans CJK SC, sans-serif" font-size="16" font-weight="600">刷新</text>
  <line x1="150" y1="407" x2="650" y2="407" stroke="#e7f0f8"/>
  <circle cx="400" cy="516" r="48" fill="#edf7ff"/>
  <path d="M378 489h44a7 7 0 017 7v40a7 7 0 01-7 7h-44a7 7 0 01-7-7v-40a7 7 0 017-7zm10 15h24m-24 14h17" fill="none" stroke="#1f88f2" stroke-width="3" stroke-linecap="round"/>
  <circle cx="416" cy="521" r="5" fill="#35cbb5"/>
  <text x="400" y="600" text-anchor="middle" fill="#1a385f" font-family="Microsoft YaHei, Noto Sans CJK SC, sans-serif" font-size="24" font-weight="700">暂时没有待缴项目</text>
  <text x="400" y="634" text-anchor="middle" fill="#708aaa" font-family="Microsoft YaHei, Noto Sans CJK SC, sans-serif" font-size="16">医生开立项目后将自动同步到这里</text>
  <rect x="286" y="674" width="228" height="52" rx="15" fill="#ffffff" stroke="#1683ee" stroke-width="2"/>
  <text x="400" y="707" text-anchor="middle" fill="#1677ef" font-family="Microsoft YaHei, Noto Sans CJK SC, sans-serif" font-size="17" font-weight="700">查看缴费记录</text>
  <rect x="150" y="770" width="500" height="58" rx="14" fill="#f5faff"/>
  <circle cx="180" cy="799" r="13" fill="#d9efff"/>
  <path d="M180 793v7m0 6h.01" stroke="#1683ee" stroke-width="2.3" stroke-linecap="round"/>
  <text x="205" y="805" fill="#6d87a5" font-family="Microsoft YaHei, Noto Sans CJK SC, sans-serif" font-size="14">已支付项目可在缴费记录中查看状态与金额</text>
  <rect x="90" y="1062" width="620" height="94" fill="#ffffff"/>
  <line x1="90" y1="1062" x2="710" y2="1062" stroke="#d9e7f4"/>
  <g font-family="Microsoft YaHei, Noto Sans CJK SC, sans-serif" font-size="13" text-anchor="middle">
    <path d="M162 1091l12-10 12 10v16h-24z" fill="none" stroke="#7185a1" stroke-width="2" stroke-linejoin="round"/>
    <text x="174" y="1134" fill="#7185a1">首页</text>
    <rect x="309" y="1081" width="26" height="28" rx="5" fill="none" stroke="#1677ef" stroke-width="2.4"/>
    <path d="M316 1090h12m-12 7h12m-12 7h9" stroke="#1677ef" stroke-width="2" stroke-linecap="round"/>
    <text x="322" y="1134" fill="#1677ef" font-weight="700">缴费</text>
    <circle cx="478" cy="1095" r="15" fill="none" stroke="#7185a1" stroke-width="2"/>
    <circle cx="470" cy="1095" r="1.8" fill="#7185a1"/><circle cx="478" cy="1095" r="1.8" fill="#7185a1"/><circle cx="486" cy="1095" r="1.8" fill="#7185a1"/>
    <text x="478" y="1134" fill="#7185a1">消息</text>
    <circle cx="626" cy="1089" r="7" fill="none" stroke="#7185a1" stroke-width="2"/>
    <path d="M614 1110c2-9 22-9 24 0" fill="none" stroke="#7185a1" stroke-width="2" stroke-linecap="round"/>
    <text x="626" y="1134" fill="#7185a1">我的</text>
  </g>
  <text x="400" y="905" text-anchor="middle" fill="#9bb0c5" font-family="Microsoft YaHei, Noto Sans CJK SC, sans-serif" font-size="13">缴费中心空态 · 设计示意</text>
</svg>
